<svg width="81" height="83" xmlns="http://www.w3.org/2000/svg" xmlns:xlink="http://www.w3.org/1999/xlink" xml:space="preserve" overflow="hidden"><defs><clipPath id="clip0"><rect x="0" y="0" width="81" height="83"/></clipPath></defs><g clip-path="url(#clip0)"><path d="M47.2612 100.728C52.9147 100.701 57.7864 99.5339 61.876 97.2288 65.9651 94.9231 69.1212 91.6297 71.3446 87.3481 73.5401 83.0943 74.6519 78.0032 74.6791 72.0748L74.6791 69.8517 37.2573 69.8517 34.5402 69.8517C34.7321 65.186 35.94 61.6458 38.163 59.2304 40.4133 56.7878 43.6107 55.5526 47.7551 55.5254 48.5512 55.5254 50.0467 55.4977 52.2426 55.4429 54.4107 55.388 57.0592 55.3332 60.1877 55.2783 63.2893 55.2234 66.6378 55.1962 70.2329 55.1962 73.8281 55.1962 77.4374 55.237 81.0602 55.3196 82.5697 58.0642 83.7223 61.0008 84.5184 64.1296 85.3144 67.2309 85.7259 70.4695 85.7536 73.8451 85.7259 79.252 84.7102 84.2882 82.7068 88.9538 80.7032 93.6472 77.9177 97.764 74.3497 101.304 70.8094 104.872 66.6927 107.658 61.9994 109.661 57.306 111.665 52.2562 112.68 46.8493 112.709 41.9364 112.68 37.312 111.83 32.9757 110.156 28.6393 108.481 24.7557 106.135 21.3252 103.116 17.867 100.097 15.0262 96.5701 12.8031 92.5354 10.5801 88.5284 9.11178 84.1508 8.39828 79.403L19.9255 79.403C20.8312 83.7942 22.5054 87.5818 24.9481 90.765 27.3907 93.9489 30.5055 96.4054 34.293 98.1345 38.0532 99.8636 42.376 100.728 47.2612 100.728" fill="#FD8D37" transform="matrix(1 0 0 -1.00002 -5.99927 115.901)"/><path d="M48.1258 43.7924C42.5266 43.82 37.6278 44.8901 33.4284 47.0034 29.2295 49.1166 25.9083 52.1221 23.4657 56.0194 21.0232 59.889 19.6233 64.4998 19.2668 69.8517L8.19234 69.8517C8.71397 64.9116 10.0725 60.3422 12.2683 56.1428 14.4365 51.9162 17.2633 48.2249 20.7487 45.0687 24.2069 41.9122 28.159 39.4424 32.6052 37.6584 37.0513 35.9016 41.7995 35.0099 46.8493 34.9823 51.6248 35.0099 56.1398 35.8059 60.3936 37.37 64.6202 38.9621 68.4354 41.1987 71.8387 44.0804 68.5174 43.9706 65.3201 43.8885 62.2465 43.8336 59.1726 43.806 56.4142 43.7924 53.9717 43.7924 51.5291 43.7924 49.5804 43.7924 48.1258 43.7924" fill="#FD8D37" transform="matrix(1 0 0 -1.00002 -5.99927 115.901)"/><path d="M47.7551 89.9831C44.3518 89.9559 41.5799 89.0364 39.439 87.2247 37.2709 85.4135 35.8438 82.8063 35.1575 79.403L37.2573 79.403 37.2573 79.3617 60.3527 79.3617C59.5291 82.8199 58.0472 85.4544 55.9062 87.266 53.7657 89.0772 51.0487 89.9831 47.7551 89.9831" fill="#FD8D37" transform="matrix(1 0 0 -1.00002 -5.99927 115.901)"/><path d="M47.7551 89.9831C44.3518 89.9559 41.5799 89.0364 39.439 87.2247 37.2709 85.4135 35.8438 82.8063 35.1575 79.403L37.2573 79.403 37.2573 79.3617 60.3527 79.3617C59.5291 82.8199 58.0472 85.4544 55.9062 87.266 53.7657 89.0772 51.0487 89.9831 47.7551 89.9831" fill="#FD8D37" transform="matrix(1 0 0 -1.00002 -5.99927 115.901)"/><path d="M35.1167 79.403C35.1167 79.403 35.1167 79.389 35.1167 79.3617L37.2573 79.3617 37.2573 79.403 35.1167 79.403" fill="#FD8D37" transform="matrix(1 0 0 -1.00002 -5.99927 115.901)"/><path d="M92.2704 79.0877 92.2704 79.0877 126.728 79.0877 126.061 72.2518C126.061 72.2518 124.672 72.9746 122.783 72.9746L122.783 72.9746 115.224 72.9746 108.499 46.9089C108.499 46.9089 108.11 45.4082 108.11 43.9634L108.11 43.9634C108.11 43.9634 108.11 43.1295 108.499 42.0181L108.499 42.0181 91.881 42.0181C91.881 42.0181 93.6595 44.6301 94.6044 48.3537L94.6044 48.3537 100.94 72.9746 92.9928 72.9746C92.9928 72.9746 91.0476 72.9746 89.4912 72.3075L89.4912 72.3075ZM156.851 47.8535 156.851 47.8535 154.462 42.0181 130.729 42.0181C130.729 42.0181 127.173 42.0181 124.839 43.6298L124.839 43.6298C124.839 43.6298 122.17 45.464 122.17 48.9094L122.17 48.9094C122.17 48.9094 122.17 49.9101 122.448 51.0772L122.448 51.0772 125.561 63.0817C125.561 63.0817 127.173 69.251 134.231 69.251L134.231 69.251 151.238 69.251C151.238 69.251 156.461 69.251 158.462 67.5278L158.462 67.5278C158.462 67.5278 160.685 65.5273 160.685 62.4703L160.685 62.4703C160.685 62.4703 160.685 61.1365 160.352 59.7469L160.352 59.7469 158.629 52.9667 136.232 52.9667 135.565 50.4658C135.565 50.4658 135.342 49.5208 135.342 48.9652L135.342 48.9652C135.342 48.9652 135.342 47.7981 136.454 47.5203L136.454 47.5203C136.454 47.5203 137.121 47.2978 138.899 47.2978L138.899 47.2978 152.015 47.2978C152.015 47.2978 155.184 47.2978 156.851 47.8535ZM137.622 58.2468 137.622 58.2468 146.625 58.2468 147.403 61.359C147.403 61.359 147.625 62.1367 147.625 62.5813L147.625 62.5813C147.625 62.5813 147.625 63.9709 145.68 63.9709L145.68 63.9709 141.456 63.9709C141.456 63.9709 139.9 63.9709 139.344 63.4705L139.344 63.4705C139.344 63.4705 138.788 62.9707 138.399 61.359L138.399 61.359ZM197.644 69.251 197.644 69.251 197.366 62.9707C197.366 62.9707 195.089 63.9709 190.697 63.9709L190.697 63.9709 179.193 63.9709C179.193 63.9709 177.359 63.9709 177.359 62.5813L177.359 62.5813C177.359 62.5813 177.359 61.6369 179.471 61.6369L179.471 61.6369 189.086 61.6369C189.086 61.6369 191.698 61.6369 193.513 60.1545L193.513 60.1545C193.513 60.1545 195.31 58.6914 195.31 56.1347L195.31 56.1347C195.31 56.1347 195.31 55.0787 194.865 53.4113L194.865 53.4113 193.754 49.243C193.754 49.243 192.809 45.4082 190.641 43.7967L190.641 43.7967C190.641 43.7967 188.307 42.0181 182.917 42.0181L182.917 42.0181 159.852 42.0181 160.463 48.1316C160.463 48.1316 162.075 47.6314 162.853 47.5203L162.853 47.5203C162.853 47.5203 164.798 47.2978 167.911 47.2978L167.911 47.2978 178.637 47.2978C178.637 47.2978 180.638 47.2978 180.638 49.243L180.638 49.243C180.638 49.243 180.638 50.1323 179.193 50.1323L179.193 50.1323 171.19 50.1323C171.19 50.1323 166.688 50.1323 165.188 51.1882L165.188 51.1882C165.188 51.1882 162.797 52.8556 162.797 56.0236L162.797 56.0236C162.797 56.0236 162.797 56.9128 162.965 57.6353L162.965 57.6353 164.409 63.1375C164.409 63.1375 165.354 66.8054 167.743 68.1392L167.743 68.1392C167.743 68.1392 169.689 69.251 173.524 69.251L173.524 69.251ZM229.212 69.251 229.212 69.251 227.822 63.9709 217.041 63.9709 213.484 50.1879C213.484 50.1879 213.373 49.7433 213.373 49.354L213.373 49.354C213.373 49.354 213.373 47.2978 217.152 47.2978L217.152 47.2978 220.709 47.2978C220.709 47.2978 223.154 47.2978 225.321 48.1316L225.321 48.1316 223.766 42.0181 210.204 42.0181C210.204 42.0181 204.87 42.0181 203.091 43.1852L203.091 43.1852C203.091 43.1852 200.035 45.2415 200.035 48.7983L200.035 48.7983C200.035 48.7983 200.035 49.7433 200.368 51.0215L200.368 51.0215 203.702 63.9709 198.089 63.9709 199.478 69.251 205.092 69.251 206.425 74.4195 219.986 75.253 218.43 69.251ZM261.78 47.8535 261.78 47.8535 259.39 42.0181 235.659 42.0181C235.659 42.0181 232.103 42.0181 229.767 43.6298L229.767 43.6298C229.767 43.6298 227.1 45.464 227.1 48.9094L227.1 48.9094C227.1 48.9094 227.1 49.9101 227.378 51.0772L227.378 51.0772 230.491 63.0817C230.491 63.0817 232.103 69.251 239.161 69.251L239.161 69.251 256.167 69.251C256.167 69.251 261.391 69.251 263.392 67.5278L263.392 67.5278C263.392 67.5278 265.615 65.5273 265.615 62.4703L265.615 62.4703C265.615 62.4703 265.615 61.1365 265.282 59.7469L265.282 59.7469 263.559 52.9667 241.161 52.9667 240.494 50.4658C240.494 50.4658 240.272 49.5208 240.272 48.9652L240.272 48.9652C240.272 48.9652 240.272 47.7981 241.384 47.5203L241.384 47.5203C241.384 47.5203 242.05 47.2978 243.829 47.2978L243.829 47.2978 256.945 47.2978C256.945 47.2978 260.113 47.2978 261.78 47.8535ZM242.55 58.2468 242.55 58.2468 251.555 58.2468 252.332 61.359C252.332 61.359 252.554 62.1367 252.554 62.5813L252.554 62.5813C252.554 62.5813 252.554 63.9709 250.609 63.9709L250.609 63.9709 246.385 63.9709C246.385 63.9709 244.829 63.9709 244.273 63.4705L244.273 63.4705C244.273 63.4705 243.718 62.9707 243.329 61.359L243.329 61.359ZM283.845 69.251 283.845 69.251C283.845 69.251 283.789 67.6946 283.511 64.638L283.511 64.638C283.511 64.638 284.956 67.3057 286.549 68.269L286.549 68.269C286.549 68.269 288.124 69.251 291.125 69.251L291.125 69.251 298.684 69.251 296.35 60.3583C296.35 60.3583 294.793 61.7479 291.791 61.7479L291.791 61.7479 287.123 61.7479C287.123 61.7479 284.011 61.7479 283.455 59.4137L283.455 59.4137 280.176 46.9089C280.176 46.9089 279.843 45.5193 279.843 43.9634L279.843 43.9634C279.843 43.9634 279.843 43.0742 280.176 42.0181L280.176 42.0181 264.504 42.0181C264.504 42.0181 266.283 44.6301 267.227 48.3537L267.227 48.3537 271.395 64.3599C271.395 64.3599 271.729 65.6937 271.729 67.3057L271.729 67.3057C271.729 67.3057 271.729 68.1949 271.34 69.251L271.34 69.251 283.845 69.251" fill="#0A2972" transform="matrix(1 0 0 -1.00002 -5.99927 115.901)"/><path d="M142.557 33.2532 142.557 33.2532C142.557 33.2532 142.212 33.2532 141.783 33.0391L141.783 33.0391C141.783 33.0391 141.347 32.8332 141.224 32.4877L141.224 32.4877C141.224 32.4877 141.692 32.8086 142.212 32.8086L142.212 32.8086C142.212 32.8086 142.656 32.8086 143.001 32.4958L143.001 32.4958C143.001 32.4958 143.348 32.1912 143.348 31.7219L143.348 31.7219C143.348 31.7219 143.348 31.1292 143.117 30.6349L143.117 30.6349C143.117 30.6349 142.878 30.1409 142.483 29.7787L142.483 29.7787C142.483 29.7787 142.087 29.4248 141.569 29.227L141.569 29.227C141.569 29.227 141.05 29.0295 140.483 29.0295L140.483 29.0295C140.483 29.0295 139.914 29.0295 139.395 29.227L139.395 29.227C139.395 29.227 138.876 29.4248 138.498 29.7787L138.498 29.7787C138.498 29.7787 138.111 30.1409 137.88 30.6349L137.88 30.6349C137.88 30.6349 137.641 31.1292 137.641 31.7219L137.641 31.7219C137.641 31.7219 137.641 32.7345 138.004 33.5991L138.004 33.5991C138.004 33.5991 138.358 34.4636 138.992 35.0894L138.992 35.0894C138.992 35.0894 139.618 35.7233 140.483 36.0773L140.483 36.0773C140.483 36.0773 141.347 36.4399 142.36 36.4399L142.36 36.4399 153.054 36.4399 153.054 29.6468C153.054 29.6468 153.054 29.301 153.204 29.0129L153.204 29.0129C153.204 29.0129 153.352 28.733 153.599 28.5109L153.599 28.5109C153.599 28.5109 153.845 28.2884 154.158 28.1484L154.158 28.1484C154.158 28.1484 154.463 28.017 154.784 28.017L154.784 28.017 153.673 24.6081 146.41 24.6081 147.423 27.9918C147.423 27.9918 148.313 28.1897 148.436 29.1036L148.436 29.1036 145.793 29.1036 143.57 25.8679C143.57 25.8679 142.952 24.9787 142.212 24.1388L142.212 24.1388C142.212 24.1388 141.471 23.2989 140.581 22.6318L140.581 22.6318C140.581 22.6318 139.692 21.9651 138.671 21.5533L138.671 21.5533C138.671 21.5533 137.641 21.1499 136.505 21.1499L136.505 21.1499C136.505 21.1499 135.567 21.1499 134.802 21.5205L134.802 21.5205C134.802 21.5205 134.035 21.891 133.493 22.5166L133.493 22.5166C133.493 22.5166 132.949 23.1505 132.669 23.9656L132.669 23.9656C132.669 23.9656 132.38 24.7809 132.38 25.6701L132.38 25.6701C132.38 25.6701 132.38 26.4359 132.677 27.2098L132.677 27.2098C132.677 27.2098 132.973 27.9918 133.493 28.6177L133.493 28.6177C133.493 28.6177 134.011 29.2517 134.719 29.6468L134.719 29.6468C134.719 29.6468 135.418 30.0421 136.234 30.0421L136.234 30.0421C136.234 30.0421 137.222 30.0421 137.906 29.3589L137.906 29.3589C137.906 29.3589 138.58 28.6837 138.58 27.6957L138.58 27.6957C138.58 27.6957 138.58 26.9299 138.078 26.3125L138.078 26.3125C138.078 26.3125 137.567 25.6947 136.753 25.6947L136.753 25.6947C136.753 25.6947 136.505 25.6947 136.258 25.7773L136.258 25.7773C136.258 25.7773 136.012 25.8679 135.814 25.9913L135.814 25.9913C135.814 25.9913 135.765 25.9172 135.765 25.7194L135.765 25.7194C135.765 25.7194 135.765 25.2994 136.102 25.0855L136.102 25.0855C136.102 25.0855 136.431 24.8796 136.802 24.8796L136.802 24.8796C136.802 24.8796 137.469 24.8796 138.177 25.1842L138.177 25.1842C138.177 25.1842 138.876 25.4973 139.535 25.9666L139.535 25.9666C139.535 25.9666 140.186 26.4359 140.745 27.0039L140.745 27.0039C140.745 27.0039 141.298 27.5719 141.668 28.0909L141.668 28.0909 144.904 32.4383C144.904 32.4383 145.076 32.6604 145.076 32.8583L145.076 32.8583C145.076 32.8583 145.076 33.1298 144.83 33.1876L144.83 33.1876C144.83 33.1876 144.583 33.2532 144.386 33.2532L144.386 33.2532ZM148.411 30.8327 148.411 30.8327 148.411 33.2778 146.781 30.8327ZM160.342 32.2158 160.342 32.2158C160.342 32.2158 160.465 32.2158 160.556 32.0759L160.556 32.0759C160.556 32.0759 160.639 31.944 160.688 31.7547L160.688 31.7547C160.688 31.7547 160.738 31.5738 160.762 31.3841L160.762 31.3841C160.762 31.3841 160.787 31.2032 160.812 31.1045L160.812 31.1045C160.812 31.1045 161.453 31.7712 162.137 32.1993L162.137 32.1993C162.137 32.1993 162.811 32.6358 163.775 32.6358L163.775 32.6358C163.775 32.6358 164.565 32.6358 165.06 32.1171L165.06 32.1171C165.06 32.1171 165.554 31.5985 165.554 30.808L165.554 30.808C165.554 30.808 165.554 30.3634 165.397 29.9434L165.397 29.9434C165.397 29.9434 165.233 29.5236 164.96 29.2022L164.96 29.2022C164.96 29.2022 164.689 28.881 164.294 28.6837L164.294 28.6837C164.294 28.6837 163.898 28.4862 163.429 28.4862L163.429 28.4862C163.429 28.4862 162.985 28.4862 162.713 28.6837L162.713 28.6837C162.713 28.6837 162.441 28.881 162.26 29.1036L162.26 29.1036C162.26 29.1036 162.071 29.3256 161.923 29.5236L161.923 29.5236C161.923 29.5236 161.775 29.7209 161.601 29.7209L161.601 29.7209C161.601 29.7209 161.231 29.7209 160.951 29.4248L160.951 29.4248C160.951 29.4248 160.664 29.1283 160.458 28.7164L160.458 28.7164C160.458 28.7164 160.243 28.313 160.095 27.8769L160.095 27.8769C160.095 27.8769 159.947 27.4485 159.848 27.1771L159.848 27.1771 159.008 24.6081 154.636 24.6081 156.785 31.1539C156.785 31.1539 156.859 31.3759 156.859 31.6232L156.859 31.6232C156.859 31.6232 156.859 31.9193 156.785 32.2158L156.785 32.2158ZM170.419 27.0779 170.419 27.0779C170.419 27.0779 170.716 27.0779 170.988 27.2511L170.988 27.2511C170.988 27.2511 171.26 27.4238 171.407 27.6711L171.407 27.6711 175.064 27.6711C175.064 27.6711 174.842 26.8065 174.298 26.1725L174.298 26.1725C174.298 26.1725 173.755 25.5467 173.038 25.1267L173.038 25.1267C173.038 25.1267 172.322 24.7068 171.474 24.4928L171.474 24.4928C171.474 24.4928 170.618 24.2868 169.802 24.2868L169.802 24.2868C169.802 24.2868 169.086 24.2868 168.312 24.4596L168.312 24.4596C168.312 24.4596 167.53 24.6327 166.904 25.028L166.904 25.028C166.904 25.028 166.27 25.4233 165.867 26.0241L165.867 26.0241C165.867 26.0241 165.455 26.6333 165.455 27.4979L165.455 27.4979C165.455 27.4979 165.455 28.0663 165.603 28.6177L165.603 28.6177C165.603 28.6177 165.751 29.1776 166.023 29.6716L166.023 29.6716C166.023 29.6716 166.443 30.4374 167.053 31.0054L167.053 31.0054C167.053 31.0054 167.654 31.5738 168.386 31.9525L168.386 31.9525C168.386 31.9525 169.111 32.3392 169.942 32.5205L169.942 32.5205C169.942 32.5205 170.766 32.7099 171.606 32.7099L171.606 32.7099C171.606 32.7099 172.223 32.7099 172.94 32.5698L172.94 32.5698C172.94 32.5698 173.655 32.4383 174.249 32.1252L174.249 32.1252C174.249 32.1252 174.842 31.8206 175.237 31.2853L175.237 31.2853C175.237 31.2853 175.632 30.7586 175.632 29.9682L175.632 29.9682C175.632 29.9682 175.632 29.4001 175.401 29.0542L175.401 29.0542C175.401 29.0542 175.163 28.7083 174.768 28.5355L174.768 28.5355C174.768 28.5355 174.372 28.3624 173.87 28.313L173.87 28.313C173.87 28.313 173.359 28.2637 172.816 28.2637L172.816 28.2637 171.334 28.2637C171.334 28.2637 170.692 28.2637 170.246 28.1484L170.246 28.1484C170.246 28.1484 169.802 28.0416 169.802 27.6217L169.802 27.6217C169.802 27.6217 169.802 27.3498 170 27.2098L170 27.2098C170 27.2098 170.197 27.0779 170.419 27.0779ZM171.407 30.5361 171.407 30.5361C171.407 30.5361 170.988 30.5361 170.733 30.1409L170.733 30.1409C170.733 30.1409 170.47 29.7456 170.396 29.4001L170.396 29.4001 170.914 29.4001C170.914 29.4001 171.186 29.4001 171.555 29.5562L171.555 29.5562C171.555 29.5562 171.927 29.7209 171.927 30.0668L171.927 30.0668C171.927 30.0668 171.927 30.2646 171.779 30.3961L171.779 30.3961C171.779 30.3961 171.631 30.5361 171.407 30.5361ZM192.947 32.2158 192.947 32.2158 190.329 24.0397C190.329 24.0397 189.687 22.0144 188.172 20.9853L188.172 20.9853C188.172 20.9853 186.648 19.9641 184.525 19.9641L184.525 19.9641C184.525 19.9641 184.006 19.9641 183.338 20.096L183.338 20.096C183.338 20.096 182.672 20.236 182.078 20.5159L182.078 20.5159C182.078 20.5159 181.486 20.804 181.066 21.2567L181.066 21.2567C181.066 21.2567 180.646 21.718 180.646 22.3604L180.646 22.3604C180.646 22.3604 180.646 22.7802 180.835 23.1096L180.835 23.1096C180.835 23.1096 181.016 23.4471 181.314 23.6776L181.314 23.6776C181.314 23.6776 181.61 23.9163 181.98 24.0397L181.98 24.0397C181.98 24.0397 182.35 24.1635 182.721 24.1635L182.721 24.1635C182.721 24.1635 182.992 24.1635 183.331 24.0895L183.331 24.0895C183.331 24.0895 183.66 24.015 183.947 23.8504L183.947 23.8504C183.947 23.8504 184.227 23.6942 184.425 23.4223L184.425 23.4223C184.425 23.4223 184.623 23.1505 184.623 22.7802L184.623 22.7802C184.623 22.7802 184.673 22.7556 184.821 22.7556L184.821 22.7556C184.821 22.7556 185.191 22.7556 185.462 23.0356L185.462 23.0356C185.462 23.0356 185.735 23.3236 185.948 23.7189L185.948 23.7189C185.948 23.7189 186.155 24.1142 186.294 24.5341L186.294 24.5341C186.294 24.5341 186.426 24.954 186.5 25.2008L186.5 25.2008C186.5 25.2008 185.339 24.4596 184.006 24.4596L184.006 24.4596C184.006 24.4596 183.512 24.4596 183.033 24.6081L183.033 24.6081C183.033 24.6081 182.548 24.7562 182.177 25.0527L182.177 25.0527C182.177 25.0527 181.807 25.3488 181.585 25.7688L181.585 25.7688C181.585 25.7688 181.363 26.1887 181.363 26.7325L181.363 26.7325C181.363 26.7325 181.363 27.1273 181.462 27.5064L181.462 27.5064C181.462 27.5064 181.56 27.8931 181.683 28.2637L181.683 28.2637 182.524 31.1539C182.524 31.1539 182.598 31.3759 182.598 31.6232L182.598 31.6232C182.598 31.6232 182.598 31.9193 182.524 32.2158L182.524 32.2158 187.167 32.2158 185.982 28.4616C185.982 28.4616 185.932 28.3871 185.932 28.2965L185.932 28.2965C185.932 28.2965 185.932 28.2143 185.932 28.1403L185.932 28.1403C185.932 28.1403 185.932 27.9425 186.031 27.7038L186.031 27.7038C186.031 27.7038 186.13 27.4731 186.376 27.4731L186.376 27.4731C186.376 27.4731 186.623 27.4731 186.822 27.6217L186.822 27.6217C186.822 27.6217 187.019 27.7697 187.167 27.9757L187.167 27.9757C187.167 27.9757 187.315 28.1897 187.414 28.4364L187.414 28.4364C187.414 28.4364 187.513 28.6837 187.587 28.881L187.587 28.881 188.698 32.2158ZM196.998 24.2375 196.998 24.2375C196.998 24.2375 196.282 24.2375 195.492 24.4187L195.492 24.4187C195.492 24.4187 194.701 24.6081 194.051 24.9867L194.051 24.9867C194.051 24.9867 193.392 25.3735 192.972 25.9913L192.972 25.9913C192.972 25.9913 192.552 26.6087 192.552 27.4731L192.552 27.4731C192.552 27.4731 192.552 28.733 193.046 29.6963L193.046 29.6963C193.046 29.6963 193.54 30.6599 194.372 31.3266L194.372 31.3266C194.372 31.3266 195.195 31.9937 196.274 32.3231L196.274 32.3231C196.274 32.3231 197.344 32.6604 198.505 32.6604L198.505 32.6604C198.505 32.6604 199.246 32.6604 200.012 32.4465L200.012 32.4465C200.012 32.4465 200.777 32.2405 201.419 31.8292L201.419 31.8292C201.419 31.8292 202.062 31.4254 202.473 30.7833L202.473 30.7833C202.473 30.7833 202.877 30.1409 202.877 29.301L202.877 29.301C202.877 29.301 202.877 28.0663 202.383 27.1273L202.383 27.1273C202.383 27.1273 201.888 26.1887 201.074 25.5467L201.074 25.5467C201.074 25.5467 200.259 24.9042 199.196 24.5669L199.196 24.5669C199.196 24.5669 198.134 24.2375 196.998 24.2375ZM197.442 27.4979 197.442 27.4979C197.442 27.4979 197.69 27.4979 197.912 27.6544L197.912 27.6544C197.912 27.6544 198.134 27.8191 198.307 28.0497L198.307 28.0497C198.307 28.0497 198.48 28.2884 198.571 28.5683L198.571 28.5683C198.571 28.5683 198.654 28.8564 198.654 29.0789L198.654 29.0789C198.654 29.0789 198.654 29.3508 198.529 29.5236L198.529 29.5236C198.529 29.5236 198.406 29.6963 198.11 29.6963L198.11 29.6963C198.11 29.6963 197.838 29.6963 197.632 29.5316L197.632 29.5316C197.632 29.5316 197.418 29.3754 197.245 29.1363L197.245 29.1363C197.245 29.1363 197.072 28.9062 196.99 28.6177L196.99 28.6177C196.99 28.6177 196.899 28.3377 196.899 28.1157L196.899 28.1157C196.899 28.1157 196.899 27.8438 197.023 27.6711L197.023 27.6711C197.023 27.6711 197.146 27.4979 197.442 27.4979ZM214.807 32.2158 214.807 32.2158 213.498 28.1897C213.498 28.1897 213.424 27.9672 213.424 27.745L213.424 27.745C213.424 27.745 213.424 27.6711 213.449 27.5557L213.449 27.5557C213.449 27.5557 213.474 27.4485 213.572 27.4485L213.572 27.4485C213.572 27.4485 213.671 27.4485 213.787 27.597L213.787 27.597C213.787 27.597 213.894 27.745 213.993 27.951L213.993 27.951C213.993 27.951 214.091 28.165 214.165 28.3462L214.165 28.3462C214.165 28.3462 214.239 28.5355 214.289 28.6096L214.289 28.6096 215.499 28.6096C215.499 28.6096 215.326 27.8931 215.022 27.1111L215.022 27.1111C215.022 27.1111 214.708 26.3372 214.239 25.6947L214.239 25.6947C214.239 25.6947 213.769 25.0527 213.12 24.6408L213.12 24.6408C213.12 24.6408 212.461 24.2375 211.571 24.2375L211.571 24.2375C211.571 24.2375 210.856 24.2375 210.287 24.5834L210.287 24.5834C210.287 24.5834 209.719 24.9289 209.422 25.5713L209.422 25.5713C209.422 25.5713 208.781 24.9042 207.907 24.5341L207.907 24.5341C207.907 24.5341 207.026 24.1635 206.112 24.1635L206.112 24.1635C206.112 24.1635 205.619 24.1635 205.141 24.3115L205.141 24.3115C205.141 24.3115 204.655 24.4596 204.285 24.7562L204.285 24.7562C204.285 24.7562 203.914 25.0527 203.692 25.4726L203.692 25.4726C203.692 25.4726 203.47 25.8926 203.47 26.4359L203.47 26.4359C203.47 26.4359 203.47 26.8312 203.568 27.2098L203.568 27.2098C203.568 27.2098 203.667 27.597 203.791 27.9672L203.791 27.9672 204.729 31.1539C204.729 31.1539 204.803 31.3759 204.803 31.6232L204.803 31.6232C204.803 31.6232 204.803 31.9193 204.729 32.2158L204.729 32.2158 209.373 32.2158 208.088 28.165C208.088 28.165 208.039 28.0909 208.039 28.0003L208.039 28.0003C208.039 28.0003 208.039 27.9178 208.039 27.8438L208.039 27.8438C208.039 27.8438 208.039 27.6463 208.138 27.4072L208.138 27.4072C208.138 27.4072 208.237 27.1771 208.483 27.1771L208.483 27.1771C208.483 27.1771 208.731 27.1771 208.945 27.3251L208.945 27.3251C208.945 27.3251 209.151 27.4731 209.299 27.6791L209.299 27.6791C209.299 27.6791 209.447 27.8931 209.547 28.1403L209.547 28.1403C209.547 28.1403 209.645 28.3871 209.719 28.5849L209.719 28.5849 210.88 32.2158ZM226.466 32.2158 226.466 32.2158C226.466 32.2158 226.59 32.2158 226.681 32.0759L226.681 32.0759C226.681 32.0759 226.762 31.944 226.812 31.7547L226.812 31.7547C226.812 31.7547 226.861 31.5738 226.886 31.3841L226.886 31.3841C226.886 31.3841 226.91 31.2032 226.936 31.1045L226.936 31.1045C226.936 31.1045 227.578 31.7712 228.261 32.1993L228.261 32.1993C228.261 32.1993 228.936 32.6358 229.899 32.6358L229.899 32.6358C229.899 32.6358 230.69 32.6358 231.184 32.1171L231.184 32.1171C231.184 32.1171 231.678 31.5985 231.678 30.808L231.678 30.808C231.678 30.808 231.678 30.3634 231.522 29.9434L231.522 29.9434C231.522 29.9434 231.357 29.5236 231.085 29.2022L231.085 29.2022C231.085 29.2022 230.814 28.881 230.419 28.6837L230.419 28.6837C230.419 28.6837 230.023 28.4862 229.554 28.4862L229.554 28.4862C229.554 28.4862 229.11 28.4862 228.837 28.6837L228.837 28.6837C228.837 28.6837 228.566 28.881 228.384 29.1036L228.384 29.1036C228.384 29.1036 228.196 29.3256 228.048 29.5236L228.048 29.5236C228.048 29.5236 227.898 29.7209 227.726 29.7209L227.726 29.7209C227.726 29.7209 227.356 29.7209 227.075 29.4248L227.075 29.4248C227.075 29.4248 226.787 29.1283 226.582 28.7164L226.582 28.7164C226.582 28.7164 226.367 28.313 226.22 27.8769L226.22 27.8769C226.22 27.8769 226.071 27.4485 225.973 27.1771L225.973 27.1771 225.132 24.6081 220.76 24.6081 222.909 31.1539C222.909 31.1539 222.983 31.3759 222.983 31.6232L222.983 31.6232C222.983 31.6232 222.983 31.9193 222.909 32.2158L222.909 32.2158ZM236.544 27.0779 236.544 27.0779C236.544 27.0779 236.841 27.0779 237.112 27.2511L237.112 27.2511C237.112 27.2511 237.384 27.4238 237.532 27.6711L237.532 27.6711 241.189 27.6711C241.189 27.6711 240.965 26.8065 240.422 26.1725L240.422 26.1725C240.422 26.1725 239.879 25.5467 239.163 25.1267L239.163 25.1267C239.163 25.1267 238.446 24.7068 237.598 24.4928L237.598 24.4928C237.598 24.4928 236.742 24.2868 235.927 24.2868L235.927 24.2868C235.927 24.2868 235.21 24.2868 234.437 24.4596L234.437 24.4596C234.437 24.4596 233.655 24.6327 233.028 25.028L233.028 25.028C233.028 25.028 232.395 25.4233 231.99 26.0241L231.99 26.0241C231.99 26.0241 231.58 26.6333 231.58 27.4979L231.58 27.4979C231.58 27.4979 231.58 28.0663 231.728 28.6177L231.728 28.6177C231.728 28.6177 231.876 29.1776 232.147 29.6716L232.147 29.6716C232.147 29.6716 232.568 30.4374 233.177 31.0054L233.177 31.0054C233.177 31.0054 233.778 31.5738 234.511 31.9525L234.511 31.9525C234.511 31.9525 235.235 32.3392 236.067 32.5205L236.067 32.5205C236.067 32.5205 236.89 32.7099 237.73 32.7099L237.73 32.7099C237.73 32.7099 238.347 32.7099 239.064 32.5698L239.064 32.5698C239.064 32.5698 239.78 32.4383 240.373 32.1252L240.373 32.1252C240.373 32.1252 240.965 31.8206 241.361 31.2853L241.361 31.2853C241.361 31.2853 241.756 30.7586 241.756 29.9682L241.756 29.9682C241.756 29.9682 241.756 29.4001 241.525 29.0542L241.525 29.0542C241.525 29.0542 241.287 28.7083 240.891 28.5355L240.891 28.5355C240.891 28.5355 240.496 28.3624 239.994 28.313L239.994 28.313C239.994 28.313 239.484 28.2637 238.941 28.2637L238.941 28.2637 237.458 28.2637C237.458 28.2637 236.816 28.2637 236.371 28.1484L236.371 28.1484C236.371 28.1484 235.927 28.0416 235.927 27.6217L235.927 27.6217C235.927 27.6217 235.927 27.3498 236.124 27.2098L236.124 27.2098C236.124 27.2098 236.322 27.0779 236.544 27.0779ZM237.532 30.5361 237.532 30.5361C237.532 30.5361 237.112 30.5361 236.857 30.1409L236.857 30.1409C236.857 30.1409 236.593 29.7456 236.519 29.4001L236.519 29.4001 237.038 29.4001C237.038 29.4001 237.31 29.4001 237.68 29.5562L237.68 29.5562C237.68 29.5562 238.051 29.7209 238.051 30.0668L238.051 30.0668C238.051 30.0668 238.051 30.2646 237.903 30.3961L237.903 30.3961C237.903 30.3961 237.754 30.5361 237.532 30.5361ZM249.487 32.2158 249.487 32.2158 253.39 32.2158 252.081 28.1897C252.081 28.1897 252.007 27.9672 252.007 27.745L252.007 27.745C252.007 27.745 252.007 27.6711 252.032 27.5557L252.032 27.5557C252.032 27.5557 252.057 27.4485 252.18 27.4485L252.18 27.4485C252.18 27.4485 252.254 27.4485 252.369 27.597L252.369 27.597C252.369 27.597 252.476 27.745 252.591 27.951L252.591 27.951C252.591 27.951 252.698 28.165 252.772 28.3462L252.772 28.3462C252.772 28.3462 252.846 28.5355 252.896 28.6096L252.896 28.6096 254.081 28.6096C254.081 28.6096 253.909 27.8931 253.604 27.1111L253.604 27.1111C253.604 27.1111 253.292 26.3372 252.822 25.6947L252.822 25.6947C252.822 25.6947 252.353 25.0527 251.703 24.6408L251.703 24.6408C251.703 24.6408 251.044 24.2375 250.155 24.2375L250.155 24.2375C250.155 24.2375 249.438 24.2375 248.911 24.6575L248.911 24.6575C248.911 24.6575 248.376 25.0774 248.104 25.7194L248.104 25.7194C248.104 25.7194 247.486 25.0774 246.697 24.6903L246.697 24.6903C246.697 24.6903 245.906 24.3115 245.016 24.3115L245.016 24.3115C245.016 24.3115 243.584 24.3115 242.818 25.2008L242.818 25.2008C242.818 25.2008 242.052 26.09 242.052 27.4731L242.052 27.4731C242.052 27.4731 242.052 28.4616 242.415 29.3754L242.415 29.3754C242.415 29.3754 242.769 30.2894 243.403 30.9893L243.403 30.9893C243.403 30.9893 244.028 31.6973 244.893 32.1171L244.893 32.1171C244.893 32.1171 245.758 32.5371 246.795 32.5371L246.795 32.5371C246.795 32.5371 247.511 32.5371 248.17 32.2984L248.17 32.2984C248.17 32.2984 248.821 32.0678 249.24 31.4747L249.24 31.4747ZM247.042 27.3251 247.042 27.3251C247.042 27.3251 247.264 27.3251 247.454 27.5064L247.454 27.5064C247.454 27.5064 247.635 27.6957 247.775 27.9425L247.775 27.9425C247.775 27.9425 247.907 28.1897 247.981 28.4616L247.981 28.4616C247.981 28.4616 248.055 28.733 248.055 28.9308L248.055 28.9308C248.055 28.9308 248.055 29.1283 247.981 29.2848L247.981 29.2848C247.981 29.2848 247.907 29.4495 247.66 29.4495L247.66 29.4495C247.66 29.4495 247.437 29.4495 247.257 29.2763L247.257 29.2763C247.257 29.2763 247.067 29.1036 246.935 28.8564L246.935 28.8564C246.935 28.8564 246.795 28.6096 246.737 28.3377L246.737 28.3377C246.737 28.3377 246.672 28.0663 246.672 27.8684L246.672 27.8684C246.672 27.8684 246.672 27.6711 246.746 27.4979L246.746 27.4979C246.746 27.4979 246.82 27.3251 247.042 27.3251ZM262.827 36.4399 262.827 36.4399 267.049 36.4399 264.333 28.1897C264.333 28.1897 264.259 27.9672 264.259 27.745L264.259 27.745C264.259 27.745 264.259 27.6711 264.283 27.5557L264.283 27.5557C264.283 27.5557 264.308 27.4485 264.432 27.4485L264.432 27.4485C264.432 27.4485 264.506 27.4485 264.622 27.597L264.622 27.597C264.622 27.597 264.728 27.745 264.843 27.951L264.843 27.951C264.843 27.951 264.951 28.165 265.025 28.3462L265.025 28.3462C265.025 28.3462 265.099 28.5355 265.148 28.6096L265.148 28.6096 266.334 28.6096C266.334 28.6096 266.161 27.8931 265.856 27.1111L265.856 27.1111C265.856 27.1111 265.543 26.3372 265.074 25.6947L265.074 25.6947C265.074 25.6947 264.604 25.0527 263.954 24.6408L263.954 24.6408C263.954 24.6408 263.295 24.2375 262.406 24.2375L262.406 24.2375C262.406 24.2375 261.689 24.2375 261.146 24.6655L261.146 24.6655C261.146 24.6655 260.604 25.1021 260.331 25.7688L260.331 25.7688C260.331 25.7688 259.714 25.1021 258.915 24.7068L258.915 24.7068C258.915 24.7068 258.108 24.3115 257.194 24.3115L257.194 24.3115C257.194 24.3115 255.762 24.3115 254.995 25.2008L254.995 25.2008C254.995 25.2008 254.23 26.09 254.23 27.4731L254.23 27.4731C254.23 27.4731 254.23 28.4616 254.592 29.3754L254.592 29.3754C254.592 29.3754 254.946 30.2894 255.58 30.9893L255.58 30.9893C255.58 30.9893 256.206 31.6973 257.071 32.1171L257.071 32.1171C257.071 32.1171 257.935 32.5371 258.973 32.5371L258.973 32.5371C258.973 32.5371 259.615 32.5371 260.224 32.3477L260.224 32.3477C260.224 32.3477 260.825 32.1665 261.245 31.6725L261.245 31.6725ZM259.22 27.3251 259.22 27.3251C259.22 27.3251 259.441 27.3251 259.631 27.5064L259.631 27.5064C259.631 27.5064 259.813 27.6957 259.952 27.9425L259.952 27.9425C259.952 27.9425 260.084 28.1897 260.158 28.4616L260.158 28.4616C260.158 28.4616 260.232 28.733 260.232 28.9308L260.232 28.9308C260.232 28.9308 260.232 29.1283 260.158 29.2848L260.158 29.2848C260.158 29.2848 260.084 29.4495 259.837 29.4495L259.837 29.4495C259.837 29.4495 259.615 29.4495 259.434 29.2763L259.434 29.2763C259.434 29.2763 259.244 29.1036 259.112 28.8564L259.112 28.8564C259.112 28.8564 258.973 28.6096 258.915 28.3377L258.915 28.3377C258.915 28.3377 258.849 28.0663 258.849 27.8684L258.849 27.8684C258.849 27.8684 258.849 27.6711 258.923 27.4979L258.923 27.4979C258.923 27.4979 258.997 27.3251 259.22 27.3251ZM278.363 32.2158 278.363 32.2158 275.744 24.0397C275.744 24.0397 275.103 22.0144 273.588 20.9853L273.588 20.9853C273.588 20.9853 272.064 19.9641 269.94 19.9641L269.94 19.9641C269.94 19.9641 269.422 19.9641 268.754 20.096L268.754 20.096C268.754 20.096 268.087 20.236 267.495 20.5159L267.495 20.5159C267.495 20.5159 266.901 20.804 266.482 21.2567L266.482 21.2567C266.482 21.2567 266.061 21.718 266.061 22.3604L266.061 22.3604C266.061 22.3604 266.061 22.7802 266.251 23.1096L266.251 23.1096C266.251 23.1096 266.432 23.4471 266.729 23.6776L266.729 23.6776C266.729 23.6776 267.025 23.9163 267.396 24.0397L267.396 24.0397C267.396 24.0397 267.766 24.1635 268.136 24.1635L268.136 24.1635C268.136 24.1635 268.409 24.1635 268.746 24.0895L268.746 24.0895C268.746 24.0895 269.075 24.015 269.363 23.8504L269.363 23.8504C269.363 23.8504 269.644 23.6942 269.841 23.4223L269.841 23.4223C269.841 23.4223 270.038 23.1505 270.038 22.7802L270.038 22.7802C270.038 22.7802 270.088 22.7556 270.236 22.7556L270.236 22.7556C270.236 22.7556 270.607 22.7556 270.878 23.0356L270.878 23.0356C270.878 23.0356 271.15 23.3236 271.365 23.7189L271.365 23.7189C271.365 23.7189 271.571 24.1142 271.71 24.5341L271.71 24.5341C271.71 24.5341 271.842 24.954 271.916 25.2008L271.916 25.2008C271.916 25.2008 270.755 24.4596 269.422 24.4596L269.422 24.4596C269.422 24.4596 268.927 24.4596 268.449 24.6081L268.449 24.6081C268.449 24.6081 267.964 24.7562 267.593 25.0527L267.593 25.0527C267.593 25.0527 267.223 25.3488 267 25.7688L267 25.7688C267 25.7688 266.778 26.1887 266.778 26.7325L266.778 26.7325C266.778 26.7325 266.778 27.1273 266.877 27.5064L266.877 27.5064C266.877 27.5064 266.975 27.8931 267.099 28.2637L267.099 28.2637 267.939 31.1539C267.939 31.1539 268.013 31.3759 268.013 31.6232L268.013 31.6232C268.013 31.6232 268.013 31.9193 267.939 32.2158L267.939 32.2158 272.582 32.2158 271.397 28.4616C271.397 28.4616 271.347 28.3871 271.347 28.2965L271.347 28.2965C271.347 28.2965 271.347 28.2143 271.347 28.1403L271.347 28.1403C271.347 28.1403 271.347 27.9425 271.446 27.7038L271.446 27.7038C271.446 27.7038 271.546 27.4731 271.793 27.4731L271.793 27.4731C271.793 27.4731 272.04 27.4731 272.237 27.6217L272.237 27.6217C272.237 27.6217 272.434 27.7697 272.582 27.9757L272.582 27.9757C272.582 27.9757 272.731 28.1897 272.83 28.4364L272.83 28.4364C272.83 28.4364 272.929 28.6837 273.003 28.881L273.003 28.881 274.115 32.2158ZM280.364 28.1403 280.364 28.1403C280.364 28.1403 280.265 28.4118 280.265 28.7576L280.265 28.7576C280.265 28.7576 280.265 29.4741 280.701 30.1494L280.701 30.1494C280.701 30.1494 281.129 30.8327 281.648 31.4339L281.648 31.4339C281.648 31.4339 282.167 32.0431 282.603 32.5205L282.603 32.5205C282.603 32.5205 283.031 33.0064 283.031 33.3523L283.031 33.3523C283.031 33.3523 283.031 33.673 282.751 33.7556L282.751 33.7556C282.751 33.7556 282.464 33.8462 282.216 33.8462L282.216 33.8462C282.216 33.8462 281.944 33.8462 281.813 33.7224L281.813 33.7224C281.813 33.7224 281.673 33.5991 281.574 33.377L281.574 33.377C281.574 33.377 281.179 32.4137 280.586 31.9193L280.586 31.9193C280.586 31.9193 279.993 31.4254 279.029 31.4254L279.029 31.4254C279.029 31.4254 278.388 31.4254 277.886 31.8453L277.886 31.8453C277.886 31.8453 277.375 32.2652 277.375 32.9323L277.375 32.9323C277.375 32.9323 277.375 34.1424 278.067 34.9082L278.067 34.9082C278.067 34.9082 278.758 35.674 279.762 36.1186L279.762 36.1186C279.762 36.1186 280.759 36.5632 281.911 36.7198L281.911 36.7198C281.911 36.7198 283.056 36.8845 283.945 36.8845L283.945 36.8845C283.945 36.8845 284.612 36.8845 285.395 36.7607L285.395 36.7607C285.395 36.7607 286.168 36.6373 286.852 36.3161L286.852 36.3161C286.852 36.3161 287.527 35.9953 287.972 35.4354L287.972 35.4354C287.972 35.4354 288.416 34.8836 288.416 34.0437L288.416 34.0437C288.416 34.0437 288.416 32.9817 287.997 32.3146L287.997 32.3146C287.997 32.3146 287.576 31.6479 286.935 31.2114L286.935 31.2114C286.935 31.2114 286.292 30.7833 285.501 30.4949L285.501 30.4949C285.501 30.4949 284.711 30.2153 283.962 29.9188L283.962 29.9188C283.962 29.9188 283.204 29.6222 282.603 29.2108L282.603 29.2108C282.603 29.2108 281.994 28.807 281.698 28.1403L281.698 28.1403ZM282.636 26.2879 282.636 26.2879C282.636 26.2879 282.636 25.8926 282.43 25.5795L282.43 25.5795C282.43 25.5795 282.216 25.2748 281.911 25.0527L281.911 25.0527C281.911 25.0527 281.599 24.8302 281.22 24.7149L281.22 24.7149C281.22 24.7149 280.833 24.6081 280.487 24.6081L280.487 24.6081C280.487 24.6081 279.845 24.6081 279.326 24.9787L279.326 24.9787C279.326 24.9787 278.807 25.3488 278.807 26.0406L278.807 26.0406C278.807 26.0406 278.807 26.4359 279.022 26.7325L279.022 26.7325C279.022 26.7325 279.228 27.0285 279.549 27.2345L279.549 27.2345C279.549 27.2345 279.87 27.4485 280.257 27.5472L280.257 27.5472C280.257 27.5472 280.635 27.6463 280.981 27.6463L280.981 27.6463C280.981 27.6463 281.599 27.6463 282.117 27.3086L282.117 27.3086C282.117 27.3086 282.636 26.9792 282.636 26.2879L282.636 26.2879" fill="#FD8342" transform="matrix(1 0 0 -1.00002 -5.99927 115.901)"/></g></svg>